<svg width="1181" height="208" viewBox="0 0 1181 208" fill="none" xmlns="http://www.w3.org/2000/svg">
<path d="M1164.72 191.603C1162.9 191.603 1161.23 191.442 1159.7 191.121C1158.18 190.778 1156.8 190.328 1155.56 189.77C1154.33 189.192 1153.22 188.538 1152.21 187.809L1154.72 183.436C1156.48 184.679 1158.25 185.59 1160.02 186.169C1161.8 186.726 1163.51 187.005 1165.14 187.005C1165.84 187.005 1166.58 186.941 1167.36 186.812C1168.13 186.662 1168.77 186.416 1169.29 186.073C1169.82 185.708 1170.09 185.215 1170.09 184.593C1170.09 184.229 1169.96 183.929 1169.7 183.693C1169.47 183.436 1169.14 183.232 1168.71 183.082C1168.28 182.932 1167.77 182.814 1167.2 182.728C1166.64 182.621 1166.03 182.546 1165.36 182.503C1164.72 182.439 1164.07 182.375 1163.4 182.31C1161.9 182.16 1160.54 181.914 1159.32 181.571C1158.1 181.228 1157.04 180.788 1156.17 180.253C1155.31 179.695 1154.64 179.02 1154.17 178.227C1153.7 177.434 1153.46 176.523 1153.46 175.494C1153.46 174.336 1153.74 173.307 1154.3 172.407C1154.88 171.506 1155.68 170.756 1156.71 170.156C1157.74 169.534 1158.92 169.063 1160.25 168.741C1161.6 168.42 1163.05 168.259 1164.59 168.259C1166.2 168.259 1167.65 168.409 1168.93 168.709C1170.24 168.988 1171.39 169.373 1172.37 169.867C1173.38 170.36 1174.22 170.895 1174.88 171.474L1172.24 175.269C1171.58 174.776 1170.81 174.357 1169.93 174.015C1169.07 173.65 1168.16 173.371 1167.2 173.178C1166.25 172.986 1165.31 172.889 1164.37 172.889C1163.4 172.889 1162.53 172.975 1161.76 173.146C1161.01 173.296 1160.41 173.532 1159.96 173.854C1159.53 174.154 1159.32 174.55 1159.32 175.043C1159.32 175.494 1159.5 175.869 1159.86 176.169C1160.25 176.448 1160.74 176.673 1161.34 176.844C1161.94 176.994 1162.61 177.112 1163.34 177.198C1164.07 177.284 1164.77 177.369 1165.46 177.455C1166.74 177.584 1168.01 177.755 1169.25 177.97C1170.5 178.162 1171.61 178.484 1172.6 178.934C1173.6 179.363 1174.41 179.985 1175.01 180.799C1175.61 181.592 1175.91 182.675 1175.91 184.047C1175.91 185.633 1175.43 186.994 1174.46 188.131C1173.5 189.245 1172.17 190.103 1170.47 190.703C1168.8 191.303 1166.88 191.603 1164.72 191.603Z" fill="black"/>
<path d="M1122.55 191.475C1120.14 191.475 1118.05 191.003 1116.28 190.06C1114.5 189.117 1113.11 187.82 1112.13 186.169C1111.14 184.519 1110.65 182.632 1110.65 180.51V168.773H1116.18V180.381C1116.18 181.603 1116.45 182.686 1116.98 183.629C1117.54 184.572 1118.3 185.312 1119.27 185.848C1120.23 186.362 1121.32 186.619 1122.55 186.619C1123.81 186.619 1124.93 186.362 1125.89 185.848C1126.88 185.312 1127.65 184.572 1128.2 183.629C1128.78 182.686 1129.07 181.603 1129.07 180.381V168.773H1134.41V180.51C1134.41 182.632 1133.92 184.519 1132.93 186.169C1131.95 187.82 1130.56 189.117 1128.78 190.06C1127 191.003 1124.93 191.475 1122.55 191.475Z" fill="black"/>
<path d="M1054.32 191.603C1052.5 191.603 1050.83 191.442 1049.31 191.121C1047.79 190.778 1046.4 190.328 1045.16 189.77C1043.94 189.192 1042.82 188.538 1041.82 187.809L1044.32 183.436C1046.08 184.679 1047.85 185.59 1049.63 186.169C1051.41 186.726 1053.11 187.005 1054.74 187.005C1055.45 187.005 1056.19 186.941 1056.96 186.812C1057.73 186.662 1058.38 186.416 1058.89 186.073C1059.43 185.708 1059.69 185.215 1059.69 184.593C1059.69 184.229 1059.57 183.929 1059.31 183.693C1059.07 183.436 1058.74 183.232 1058.31 183.082C1057.88 182.932 1057.38 182.814 1056.8 182.728C1056.24 182.621 1055.63 182.546 1054.97 182.503C1054.32 182.439 1053.67 182.375 1053.01 182.31C1051.51 182.16 1050.14 181.914 1048.92 181.571C1047.7 181.228 1046.65 180.788 1045.77 180.253C1044.91 179.695 1044.25 179.02 1043.78 178.227C1043.31 177.434 1043.07 176.523 1043.07 175.494C1043.07 174.336 1043.35 173.307 1043.91 172.407C1044.49 171.506 1045.29 170.756 1046.32 170.156C1047.35 169.534 1048.53 169.063 1049.86 168.741C1051.21 168.42 1052.65 168.259 1054.2 168.259C1055.8 168.259 1057.25 168.409 1058.54 168.709C1059.84 168.988 1060.99 169.373 1061.98 169.867C1062.99 170.36 1063.82 170.895 1064.49 171.474L1061.85 175.269C1061.18 174.776 1060.41 174.357 1059.53 174.015C1058.68 173.65 1057.77 173.371 1056.8 173.178C1055.86 172.986 1054.91 172.889 1053.97 172.889C1053.01 172.889 1052.14 172.975 1051.37 173.146C1050.62 173.296 1050.02 173.532 1049.57 173.854C1049.14 174.154 1048.92 174.55 1048.92 175.043C1048.92 175.494 1049.1 175.869 1049.47 176.169C1049.86 176.448 1050.35 176.673 1050.95 176.844C1051.55 176.994 1052.21 177.112 1052.94 177.198C1053.67 177.284 1054.38 177.369 1055.06 177.455C1056.35 177.584 1057.62 177.755 1058.86 177.97C1060.1 178.162 1061.22 178.484 1062.2 178.934C1063.21 179.363 1064.01 179.985 1064.61 180.799C1065.21 181.592 1065.51 182.675 1065.51 184.047C1065.51 185.633 1065.03 186.994 1064.07 188.131C1063.1 189.245 1061.77 190.103 1060.08 190.703C1058.41 191.303 1056.49 191.603 1054.32 191.603Z" fill="black"/>
<path d="M1019.34 177.905L1019.69 168.773H1025.29L1022.59 177.905H1019.34Z" fill="black"/>
<path d="M988.255 191.282V173.597H979.316V168.773H1002.82V173.597H993.722V191.282H988.255Z" fill="black"/>
<path d="M942.797 191.282V186.459H948.842V173.597H942.797V168.773H960.386V173.597H954.308V186.459H960.386V191.282H942.797Z" fill="black"/>
<path d="M888.976 198.485L887.176 196.363C888.312 195.806 889.223 195.227 889.909 194.627C890.616 194.026 890.97 193.48 890.97 192.987C890.97 192.622 890.831 192.311 890.552 192.054C890.295 191.797 889.963 191.604 889.555 191.475C889.041 191.261 888.548 190.961 888.076 190.575C887.626 190.168 887.401 189.61 887.401 188.903C887.401 187.96 887.744 187.263 888.43 186.813C889.116 186.363 889.952 186.138 890.938 186.138C891.752 186.138 892.524 186.363 893.253 186.813C893.982 187.242 894.571 187.831 895.022 188.581C895.493 189.332 895.729 190.168 895.729 191.09C895.729 191.818 895.536 192.547 895.15 193.276C894.764 194.026 894.25 194.734 893.607 195.398C892.964 196.084 892.235 196.684 891.42 197.199C890.627 197.735 889.812 198.164 888.976 198.485Z" fill="black"/>
<path d="M862.906 191.282V168.773H868.372V191.282H862.906ZM844.449 191.282V168.773H849.916V191.282H844.449ZM846.571 182.632L846.636 177.745H865.8V182.632H846.571Z" fill="black"/>
<path d="M815.118 191.604C813.168 191.604 811.346 191.326 809.652 190.768C807.98 190.211 806.501 189.418 805.215 188.389C803.95 187.36 802.964 186.138 802.256 184.723C801.549 183.287 801.195 181.69 801.195 179.932C801.195 178.217 801.56 176.652 802.289 175.238C803.017 173.823 804.003 172.601 805.247 171.572C806.512 170.521 807.98 169.718 809.652 169.16C811.346 168.603 813.146 168.324 815.054 168.324C816.49 168.324 817.862 168.485 819.17 168.807C820.499 169.128 821.721 169.557 822.836 170.093C823.972 170.607 824.915 171.175 825.665 171.797L822.578 176.138C821.978 175.645 821.292 175.184 820.52 174.755C819.77 174.326 818.913 173.983 817.948 173.726C817.005 173.469 815.922 173.34 814.7 173.34C813.736 173.34 812.793 173.49 811.871 173.791C810.949 174.069 810.102 174.487 809.331 175.045C808.559 175.602 807.948 176.299 807.498 177.135C807.048 177.971 806.822 178.925 806.822 179.996C806.822 181.09 807.058 182.054 807.53 182.89C808.023 183.726 808.677 184.423 809.491 184.98C810.306 185.538 811.228 185.956 812.257 186.234C813.286 186.513 814.347 186.653 815.44 186.653C816.683 186.653 817.777 186.492 818.72 186.17C819.663 185.827 820.499 185.42 821.228 184.948C821.957 184.477 822.6 184.048 823.157 183.662L825.729 187.907C825.086 188.421 824.218 188.968 823.125 189.546C822.053 190.125 820.831 190.618 819.459 191.026C818.109 191.411 816.662 191.604 815.118 191.604Z" fill="black"/>
<path d="M762.449 191.282V168.773H782.642V173.436H767.755V186.619H782.964V191.282H762.449ZM765.343 182.053V177.616H781.196V182.053H765.343Z" fill="black"/>
<path d="M729.591 191.282V173.597H720.652V168.773H744.158V173.597H735.058V191.282H729.591Z" fill="black"/>
<path d="M651.75 191.282L662.94 168.773H668.085L679.21 191.282H673.551L666.895 177.938C666.659 177.466 666.445 177.027 666.252 176.619C666.059 176.19 665.877 175.783 665.705 175.397C665.534 174.99 665.373 174.593 665.223 174.208C665.094 173.8 664.955 173.382 664.805 172.954L666.059 172.921C665.909 173.372 665.748 173.811 665.577 174.24C665.427 174.647 665.255 175.054 665.062 175.462C664.891 175.869 664.708 176.287 664.515 176.716C664.323 177.123 664.119 177.541 663.905 177.97L657.281 191.282H651.75ZM656.927 187.295L658.728 183.179H672.2L672.94 187.295H656.927Z" fill="black"/>
<path d="M598.61 191.603C596.788 191.603 595.116 191.442 593.594 191.121C592.072 190.778 590.689 190.328 589.446 189.77C588.224 189.192 587.109 188.538 586.102 187.809L588.61 183.436C590.367 184.679 592.136 185.59 593.915 186.169C595.694 186.726 597.399 187.005 599.028 187.005C599.735 187.005 600.475 186.941 601.247 186.812C602.018 186.662 602.661 186.416 603.176 186.073C603.712 185.708 603.98 185.215 603.98 184.593C603.98 184.229 603.851 183.929 603.594 183.693C603.358 183.436 603.026 183.232 602.597 183.082C602.168 182.932 601.665 182.814 601.086 182.728C600.528 182.621 599.917 182.546 599.253 182.503C598.61 182.439 597.956 182.375 597.291 182.31C595.791 182.16 594.43 181.914 593.208 181.571C591.986 181.228 590.936 180.788 590.057 180.253C589.199 179.695 588.535 179.02 588.063 178.227C587.591 177.434 587.356 176.523 587.356 175.494C587.356 174.336 587.634 173.307 588.192 172.407C588.77 171.506 589.574 170.756 590.603 170.156C591.632 169.534 592.811 169.063 594.14 168.741C595.491 168.42 596.938 168.259 598.481 168.259C600.089 168.259 601.536 168.409 602.822 168.709C604.13 168.988 605.277 169.373 606.263 169.867C607.27 170.36 608.106 170.895 608.771 171.474L606.134 175.269C605.47 174.776 604.698 174.357 603.819 174.015C602.961 173.65 602.05 173.371 601.086 173.178C600.143 172.986 599.199 172.889 598.256 172.889C597.291 172.889 596.423 172.975 595.652 173.146C594.901 173.296 594.301 173.532 593.851 173.854C593.422 174.154 593.208 174.55 593.208 175.043C593.208 175.494 593.39 175.869 593.754 176.169C594.14 176.448 594.633 176.673 595.234 176.844C595.834 176.994 596.498 177.112 597.227 177.198C597.956 177.284 598.663 177.369 599.349 177.455C600.636 177.584 601.9 177.755 603.144 177.97C604.387 178.162 605.502 178.484 606.488 178.934C607.495 179.363 608.299 179.985 608.899 180.799C609.5 181.592 609.8 182.675 609.8 184.047C609.8 185.633 609.317 186.994 608.353 188.131C607.388 189.245 606.059 190.103 604.366 190.703C602.693 191.303 600.775 191.603 598.61 191.603Z" fill="black"/>
<path d="M563.625 177.905L563.979 168.773H569.574L566.873 177.905H563.625Z" fill="black"/>
<path d="M532.541 191.282V173.597H523.602V168.773H547.107V173.597H538.007V191.282H532.541Z" fill="black"/>
<path d="M487.086 191.282V186.459H493.131V173.597H487.086V168.773H504.675V173.597H498.597V186.459H504.675V191.282H487.086Z" fill="black"/>
<path d="M420.93 191.282V168.773H426.396V191.282H420.93ZM423.084 182.986V178.42H438.969V182.986H423.084ZM423.534 173.597V168.773H440.287V173.597H423.534Z" fill="black"/>
<path d="M382 191.282V186.459H388.045V173.597H382V168.773H399.589V173.597H393.511V186.459H399.589V191.282H382Z" fill="black"/>
<path d="M193.5 39H0L25.5 70H65.5V170.5L97.5 208V70H175.602L193.5 39Z" fill="url(#paint0_linear_2794_1013)"/>
<path d="M140 78H106.5L168.5 196.5V135L140 78Z" fill="#C0E919"/>
<path d="M229.5 30.9997L168.5 135V160.983L260 2.5L219 24.9375L229.5 30.9997Z" fill="#08503F"/>
<path d="M264.502 49.5L260 2.5L168.5 160.5V196.5L254.109 43.5L264.502 49.5Z" fill="url(#paint1_linear_2794_1013)"/>
<path d="M216 39L168.5 119L164.7 109.5L205.5 39H216Z" fill="url(#paint2_linear_2794_1013)"/>
<path d="M287.202 40.1816C311.744 42.3105 330.999 62.9065 330.999 88C330.999 90.4211 330.819 92.8002 330.473 95.125C327.969 114.832 312.546 131.685 300.5 136L337 184H296L265 141H240V184H206V144.5L225 110H281.5C281.572 109.958 281.644 109.916 281.716 109.874C291.059 108.817 298.399 101.159 298.963 91.6748C299.46 88.999 299.026 86.4939 297.958 84.1973C295.582 77.2357 289.378 72.0477 281.856 71.1416C281.737 71.094 281.619 71.0459 281.5 71L248 70.5L257 55C264.6 61.8 270.167 57.1667 272 54L272.5 40H287C287.067 40.0609 287.135 40.121 287.202 40.1816Z" fill="url(#paint3_linear_2794_1013)"/>
<path d="M1085.18 38.7227H1103.44V79.2661L1114.1 68.6113H1136.1L1151.46 83.9708V137.521H1133.19V88.9522L1128.49 84.1091H1116.59L1103.44 97.393V137.521H1085.18V38.7227Z" fill="black"/>
<path d="M1006.63 123.407V82.7254L1020.6 68.6113H1058.52L1072.77 83.0022V95.7325H1054.51V88.9522L1049.66 84.1091H1029.74L1024.89 88.9522V117.18L1029.74 122.023H1049.66L1054.51 117.18V110.4H1072.77V123.13L1058.52 137.521H1020.6L1006.63 123.407Z" fill="black"/>
<path d="M926.348 124.791V109.016L939.078 96.286H974.086V87.5685L969.797 83.2789H949.041L944.89 87.5685V91.4429H926.901V83.5557L941.707 68.6113H977.269L992.075 83.5557V137.521H975.609V127.697L965.369 137.521H939.078L926.348 124.791ZM964.124 123.407L974.086 113.859V109.293H948.072L944.336 113.029V119.948L947.796 123.407H964.124Z" fill="black"/>
<path d="M846.367 123.407V83.0022L860.62 68.6113H899.503L913.893 83.0022V109.155H864.632V118.011L869.06 122.577H891.615L895.766 118.287V114.69H913.755V123.684L900.056 137.521H860.343L846.367 123.407ZM895.628 96.4244V88.3987L890.923 83.5557H869.337L864.632 88.3987V96.4244H895.628Z" fill="black"/>
<path d="M794.645 68.6113H811.526V80.0963L822.596 68.6113H842.245V84.1091H826.332L812.91 97.9465V137.521H794.645V68.6113Z" fill="black"/>
<path d="M704.621 40.6602H723.993L748.07 115.105H748.347L772.424 40.6602H791.796L757.341 137.522H739.076L704.621 40.6602Z" fill="url(#paint4_linear_2794_1013)"/>
<path d="M638.438 38.7227H656.703V79.2661L667.358 68.6113H689.359L704.718 83.9708V137.521H686.453V88.9522L681.748 84.1091H669.848L656.703 97.393V137.521H638.438V38.7227Z" fill="#08503F"/>
<path d="M559.891 123.407V82.7254L573.866 68.6113H611.781L626.033 83.0022V95.7325H607.768V88.9522L602.925 84.1091H582.999L578.156 88.9522V117.18L582.999 122.023H602.925L607.768 117.18V110.4H626.033V123.13L611.781 137.521H573.866L559.891 123.407Z" fill="#08503F"/>
<path d="M479.219 123.407V83.0022L493.471 68.6113H532.354L546.745 83.0022V109.155H497.484V118.011L501.912 122.577H524.467L528.618 118.287V114.69H546.607V123.684L532.908 137.521H493.194L479.219 123.407ZM528.48 96.4244V88.3987L523.775 83.5557H502.189L497.484 88.3987V96.4244H528.48Z" fill="#08503F"/>
<path d="M434.92 56.5731H406V40.6602H482.659V56.5731H453.739V137.522H434.92V56.5731Z" fill="#08503F"/>
<rect x="394" y="150.244" width="771" height="3" fill="black"/>
<defs>
<linearGradient id="paint0_linear_2794_1013" x1="174.5" y1="127" x2="-0.500003" y2="40" gradientUnits="userSpaceOnUse">
<stop stop-color="#08503F"/>
<stop offset="0.727879" stop-color="#0A6765"/>
</linearGradient>
<linearGradient id="paint1_linear_2794_1013" x1="258.5" y1="3" x2="173.5" y2="180" gradientUnits="userSpaceOnUse">
<stop stop-color="#0A6765"/>
<stop offset="1" stop-color="#08503F"/>
</linearGradient>
<linearGradient id="paint2_linear_2794_1013" x1="190.25" y1="39" x2="190.25" y2="119" gradientUnits="userSpaceOnUse">
<stop stop-color="#252C2A"/>
<stop offset="1" stop-color="#8B9092"/>
</linearGradient>
<linearGradient id="paint3_linear_2794_1013" x1="271.5" y1="40" x2="271.5" y2="184" gradientUnits="userSpaceOnUse">
<stop stop-color="#252C2A"/>
<stop offset="1" stop-color="#8B9092"/>
</linearGradient>
<linearGradient id="paint4_linear_2794_1013" x1="791.689" y1="37.5327" x2="708.397" y2="80.9542" gradientUnits="userSpaceOnUse">
<stop stop-color="#252C2A"/>
<stop offset="1" stop-color="#08503F"/>
</linearGradient>
</defs>
</svg>
