<svg width="131" height="16" viewBox="0 0 131 16" fill="none" xmlns="http://www.w3.org/2000/svg">
<path d="M129.24 15.3702C128.76 15.3702 128.347 15.2035 128 14.8702C127.667 14.5235 127.5 14.1102 127.5 13.6302C127.5 13.1502 127.667 12.7435 128 12.4102C128.347 12.0768 128.76 11.9102 129.24 11.9102C129.72 11.9102 130.127 12.0768 130.46 12.4102C130.793 12.7435 130.96 13.1502 130.96 13.6302C130.96 14.1102 130.793 14.5235 130.46 14.8702C130.127 15.2035 129.72 15.3702 129.24 15.3702Z" fill="#0B73DA"/>
<path d="M116.174 0.929688H118.794V4.94969L118.634 6.72969H118.794C119.074 6.26302 119.474 5.88302 119.994 5.58969C120.527 5.28302 121.12 5.12969 121.774 5.12969C123.04 5.12969 123.974 5.50302 124.574 6.24969C125.187 6.99635 125.494 8.01635 125.494 9.30969V15.2497H122.874V9.62969C122.874 8.94969 122.714 8.43635 122.394 8.08969C122.074 7.72969 121.627 7.54969 121.054 7.54969C120.694 7.54969 120.374 7.62969 120.094 7.78969C119.814 7.93635 119.574 8.14302 119.374 8.40969C119.187 8.67635 119.04 8.98969 118.934 9.34969C118.84 9.69635 118.794 10.0697 118.794 10.4697V15.2497H116.174V0.929688Z" fill="black"/>
<path d="M114.577 12.7489C114.15 13.5756 113.55 14.2556 112.777 14.7889C112.017 15.3089 111.063 15.5689 109.917 15.5689C109.157 15.5689 108.457 15.4422 107.817 15.1889C107.19 14.9222 106.643 14.5556 106.177 14.0889C105.723 13.6222 105.363 13.0756 105.097 12.4489C104.843 11.8089 104.717 11.1089 104.717 10.3489C104.717 9.58891 104.843 8.88891 105.097 8.24891C105.363 7.60891 105.723 7.06224 106.177 6.60891C106.643 6.14224 107.19 5.78224 107.817 5.52891C108.457 5.26224 109.157 5.12891 109.917 5.12891C111.05 5.12891 112.003 5.38891 112.777 5.90891C113.55 6.42891 114.117 7.10224 114.477 7.92891L112.077 8.92891C111.85 8.47557 111.557 8.13557 111.197 7.90891C110.85 7.66891 110.41 7.54891 109.877 7.54891C109.53 7.54891 109.203 7.61557 108.897 7.74891C108.59 7.88224 108.317 8.06891 108.077 8.30891C107.85 8.54891 107.67 8.84224 107.537 9.18891C107.403 9.53557 107.337 9.92224 107.337 10.3489C107.337 10.7756 107.403 11.1622 107.537 11.5089C107.67 11.8556 107.85 12.1489 108.077 12.3889C108.317 12.6289 108.59 12.8156 108.897 12.9489C109.203 13.0822 109.53 13.1489 109.877 13.1489C110.423 13.1489 110.883 13.0289 111.257 12.7889C111.643 12.5356 111.95 12.1756 112.177 11.7089L114.577 12.7489Z" fill="black"/>
<path d="M100.711 14.2089H100.551C100.245 14.5822 99.8713 14.9022 99.4313 15.1689C99.0047 15.4356 98.4513 15.5689 97.7713 15.5689C97.2647 15.5689 96.7847 15.4822 96.3313 15.3089C95.8913 15.1489 95.5047 14.9222 95.1713 14.6289C94.838 14.3356 94.578 13.9822 94.3913 13.5689C94.2047 13.1556 94.1113 12.7022 94.1113 12.2089C94.1113 11.7022 94.2113 11.2489 94.4113 10.8489C94.6113 10.4356 94.8913 10.0822 95.2513 9.78891C95.6113 9.49557 96.0313 9.27557 96.5113 9.12891C97.0047 8.96891 97.538 8.88891 98.1113 8.88891C98.7513 8.88891 99.278 8.94224 99.6913 9.04891C100.105 9.14224 100.445 9.24224 100.711 9.34891V9.04891C100.711 8.52891 100.505 8.10224 100.091 7.76891C99.678 7.42224 99.1647 7.24891 98.5513 7.24891C97.6447 7.24891 96.878 7.62891 96.2513 8.38891L94.3513 7.08891C95.3913 5.78224 96.8113 5.12891 98.6113 5.12891C100.131 5.12891 101.291 5.48891 102.091 6.20891C102.891 6.91557 103.291 7.96891 103.291 9.36891V15.2489H100.711V14.2089ZM100.711 11.2689C100.405 11.1222 100.085 11.0089 99.7513 10.9289C99.4313 10.8356 99.078 10.7889 98.6913 10.7889C98.0647 10.7889 97.578 10.9289 97.2313 11.2089C96.898 11.4756 96.7313 11.8089 96.7313 12.2089C96.7313 12.6089 96.8913 12.9289 97.2113 13.1689C97.5447 13.4089 97.9247 13.5289 98.3513 13.5289C98.698 13.5289 99.018 13.4689 99.3113 13.3489C99.6047 13.2156 99.8513 13.0489 100.051 12.8489C100.265 12.6356 100.425 12.3956 100.531 12.1289C100.651 11.8489 100.711 11.5622 100.711 11.2689Z" fill="black"/>
<path d="M92.7404 12.8889C92.2871 13.6889 91.6737 14.3356 90.9004 14.8289C90.1404 15.3222 89.2071 15.5689 88.1004 15.5689C87.3537 15.5689 86.6604 15.4422 86.0204 15.1889C85.3937 14.9222 84.8471 14.5556 84.3804 14.0889C83.9137 13.6222 83.5471 13.0756 83.2804 12.4489C83.0271 11.8089 82.9004 11.1089 82.9004 10.3489C82.9004 9.64224 83.0271 8.97557 83.2804 8.34891C83.5337 7.70891 83.8871 7.15557 84.3404 6.68891C84.7937 6.20891 85.3271 5.82891 85.9404 5.54891C86.5671 5.26891 87.2537 5.12891 88.0004 5.12891C88.7871 5.12891 89.4871 5.26224 90.1004 5.52891C90.7137 5.78224 91.2271 6.14224 91.6404 6.60891C92.0537 7.06224 92.3671 7.60224 92.5804 8.22891C92.7937 8.85557 92.9004 9.53557 92.9004 10.2689C92.9004 10.3622 92.9004 10.4422 92.9004 10.5089C92.8871 10.5889 92.8804 10.6622 92.8804 10.7289C92.8671 10.7956 92.8604 10.8689 92.8604 10.9489H85.4804C85.5337 11.3489 85.6404 11.6956 85.8004 11.9889C85.9737 12.2689 86.1804 12.5089 86.4204 12.7089C86.6737 12.8956 86.9471 13.0356 87.2404 13.1289C87.5337 13.2089 87.8337 13.2489 88.1404 13.2489C88.7404 13.2489 89.2337 13.1156 89.6204 12.8489C90.0204 12.5689 90.3337 12.2222 90.5604 11.8089L92.7404 12.8889ZM90.3604 9.08891C90.3471 8.91557 90.2871 8.72224 90.1804 8.50891C90.0871 8.29557 89.9404 8.09557 89.7404 7.90891C89.5537 7.72224 89.3137 7.56891 89.0204 7.44891C88.7404 7.32891 88.4004 7.26891 88.0004 7.26891C87.4404 7.26891 86.9471 7.42891 86.5204 7.74891C86.0937 8.06891 85.7937 8.51557 85.6204 9.08891H90.3604Z" fill="black"/>
<path d="M71.5723 0.929688H76.7923C77.5123 0.929688 78.1656 1.04302 78.7523 1.26969C79.3389 1.49635 79.8389 1.80969 80.2523 2.20969C80.6789 2.60969 81.0056 3.08969 81.2323 3.64969C81.4589 4.19635 81.5723 4.79635 81.5723 5.44969C81.5723 5.92969 81.4923 6.38302 81.3323 6.80969C81.1723 7.22302 80.9523 7.60302 80.6723 7.94969C80.3923 8.28302 80.0656 8.58302 79.6923 8.84969C79.3189 9.10302 78.9256 9.30302 78.5123 9.44969L78.4923 9.58969L82.3323 15.0897V15.2497H79.2323L75.5323 9.86969H74.2723V15.2497H71.5723V0.929688ZM76.7723 7.38969C77.3856 7.38969 77.8856 7.20302 78.2723 6.82969C78.6723 6.45635 78.8723 5.98302 78.8723 5.40969C78.8723 5.15635 78.8256 4.90969 78.7323 4.66969C78.6523 4.42969 78.5256 4.21635 78.3523 4.02969C78.1789 3.84302 77.9589 3.69635 77.6923 3.58969C77.4389 3.46969 77.1456 3.40969 76.8123 3.40969H74.2723V7.38969H76.7723Z" fill="black"/>
<path d="M66.052 15.2492H64.212L60.252 5.44922H62.252L65.132 13.0492H65.172L68.092 5.44922H70.052L66.052 15.2492Z" fill="black"/>
<path d="M49.8066 0.929688H52.4266V4.94969L52.2666 6.72969H52.4266C52.7066 6.26302 53.1066 5.88302 53.6266 5.58969C54.16 5.28302 54.7533 5.12969 55.4066 5.12969C56.6733 5.12969 57.6066 5.50302 58.2066 6.24969C58.82 6.99635 59.1266 8.01635 59.1266 9.30969V15.2497H56.5066V9.62969C56.5066 8.94969 56.3466 8.43635 56.0266 8.08969C55.7066 7.72969 55.26 7.54969 54.6866 7.54969C54.3266 7.54969 54.0066 7.62969 53.7266 7.78969C53.4466 7.93635 53.2066 8.14302 53.0066 8.40969C52.82 8.67635 52.6733 8.98969 52.5666 9.34969C52.4733 9.69635 52.4266 10.0697 52.4266 10.4697V15.2497H49.8066V0.929688Z" fill="black"/>
<path d="M48.2096 12.7489C47.7829 13.5756 47.1829 14.2556 46.4096 14.7889C45.6496 15.3089 44.6963 15.5689 43.5496 15.5689C42.7896 15.5689 42.0896 15.4422 41.4496 15.1889C40.8229 14.9222 40.2763 14.5556 39.8096 14.0889C39.3563 13.6222 38.9963 13.0756 38.7296 12.4489C38.4763 11.8089 38.3496 11.1089 38.3496 10.3489C38.3496 9.58891 38.4763 8.88891 38.7296 8.24891C38.9963 7.60891 39.3563 7.06224 39.8096 6.60891C40.2763 6.14224 40.8229 5.78224 41.4496 5.52891C42.0896 5.26224 42.7896 5.12891 43.5496 5.12891C44.6829 5.12891 45.6363 5.38891 46.4096 5.90891C47.1829 6.42891 47.7496 7.10224 48.1096 7.92891L45.7096 8.92891C45.4829 8.47557 45.1896 8.13557 44.8296 7.90891C44.4829 7.66891 44.0429 7.54891 43.5096 7.54891C43.1629 7.54891 42.8363 7.61557 42.5296 7.74891C42.2229 7.88224 41.9496 8.06891 41.7096 8.30891C41.4829 8.54891 41.3029 8.84224 41.1696 9.18891C41.0363 9.53557 40.9696 9.92224 40.9696 10.3489C40.9696 10.7756 41.0363 11.1622 41.1696 11.5089C41.3029 11.8556 41.4829 12.1489 41.7096 12.3889C41.9496 12.6289 42.2229 12.8156 42.5296 12.9489C42.8363 13.0822 43.1629 13.1489 43.5096 13.1489C44.0563 13.1489 44.5163 13.0289 44.8896 12.7889C45.2763 12.5356 45.5829 12.1756 45.8096 11.7089L48.2096 12.7489Z" fill="black"/>
<path d="M36.9787 12.8889C36.5253 13.6889 35.912 14.3356 35.1387 14.8289C34.3787 15.3222 33.4453 15.5689 32.3387 15.5689C31.592 15.5689 30.8987 15.4422 30.2587 15.1889C29.632 14.9222 29.0853 14.5556 28.6187 14.0889C28.152 13.6222 27.7853 13.0756 27.5187 12.4489C27.2653 11.8089 27.1387 11.1089 27.1387 10.3489C27.1387 9.64224 27.2653 8.97557 27.5187 8.34891C27.772 7.70891 28.1253 7.15557 28.5787 6.68891C29.032 6.20891 29.5653 5.82891 30.1787 5.54891C30.8053 5.26891 31.492 5.12891 32.2387 5.12891C33.0253 5.12891 33.7253 5.26224 34.3387 5.52891C34.952 5.78224 35.4653 6.14224 35.8787 6.60891C36.292 7.06224 36.6053 7.60224 36.8187 8.22891C37.032 8.85557 37.1387 9.53557 37.1387 10.2689C37.1387 10.3622 37.1387 10.4422 37.1387 10.5089C37.1253 10.5889 37.1187 10.6622 37.1187 10.7289C37.1053 10.7956 37.0987 10.8689 37.0987 10.9489H29.7187C29.772 11.3489 29.8787 11.6956 30.0387 11.9889C30.212 12.2689 30.4187 12.5089 30.6587 12.7089C30.912 12.8956 31.1853 13.0356 31.4787 13.1289C31.772 13.2089 32.072 13.2489 32.3787 13.2489C32.9787 13.2489 33.472 13.1156 33.8587 12.8489C34.2587 12.5689 34.572 12.2222 34.7987 11.8089L36.9787 12.8889ZM34.5987 9.08891C34.5853 8.91557 34.5253 8.72224 34.4187 8.50891C34.3253 8.29557 34.1787 8.09557 33.9787 7.90891C33.792 7.72224 33.552 7.56891 33.2587 7.44891C32.9787 7.32891 32.6387 7.26891 32.2387 7.26891C31.6787 7.26891 31.1853 7.42891 30.7587 7.74891C30.332 8.06891 30.032 8.51557 29.8587 9.08891H34.5987Z" fill="black"/>
<path d="M21 15.2497V3.48969H17V0.929688H27.7V3.48969H23.7V15.2497H21Z" fill="black"/>
<path d="M0 15C0 13.1615 0.362121 11.341 1.06569 9.64243C1.76925 7.94387 2.80049 6.40053 4.10051 5.1005C5.40053 3.80048 6.94387 2.76925 8.64243 2.06569C10.341 1.36212 12.1615 1 14 1L14 15H0Z" fill="#0B73DA" fill-opacity="0.4"/>
<path d="M0 15C0 13.1615 0.362121 11.341 1.06569 9.64243C1.76925 7.94387 2.80049 6.40053 4.10051 5.1005C5.40053 3.80048 6.94387 2.76925 8.64243 2.06569C10.341 1.36212 12.1615 1 14 1L14 8.54466C13.1523 8.54466 12.3128 8.71163 11.5296 9.03604C10.7464 9.36045 10.0348 9.83595 9.43538 10.4354C8.83595 11.0348 8.36045 11.7464 8.03604 12.5296C7.71163 13.3128 7.54466 14.1523 7.54466 15H0Z" fill="#0B73DA" fill-opacity="0.6"/>
<path d="M0 15C0 13.1615 0.362121 11.341 1.06569 9.64243C1.76925 7.94387 2.80049 6.40053 4.10051 5.1005C5.40053 3.80048 6.94387 2.76925 8.64243 2.06569C10.341 1.36212 12.1615 1 14 1L14 4.10587C12.5694 4.10587 11.1527 4.38765 9.831 4.93513C8.50926 5.48262 7.3083 6.28507 6.29669 7.29669C5.28507 8.3083 4.48262 9.50926 3.93513 10.831C3.38765 12.1527 3.10587 13.5694 3.10587 15H0Z" fill="#0B73DA"/>
</svg>
